<?xml version="1.0" encoding="UTF-8" standalone="no"?>
<!-- Created with Inkscape (http://www.inkscape.org/) -->

<svg
   xmlns:dc="http://purl.org/dc/elements/1.1/"
   xmlns:cc="http://creativecommons.org/ns#"
   xmlns:rdf="http://www.w3.org/1999/02/22-rdf-syntax-ns#"
   xmlns:svg="http://www.w3.org/2000/svg"
   xmlns="http://www.w3.org/2000/svg"
   xmlns:sodipodi="http://sodipodi.sourceforge.net/DTD/sodipodi-0.dtd"
   xmlns:inkscape="http://www.inkscape.org/namespaces/inkscape"
   width="210mm"
   height="297mm"
   id="svg3878"
   version="1.1"
   inkscape:version="0.48.3.1 r9886"
   sodipodi:docname="New document 6">
  <defs
     id="defs3" />
  <sodipodi:namedview
     inkscape:document-units="mm"
     id="base"
     pagecolor="#ffffff"
     bordercolor="#666666"
     borderopacity="1.0"
     inkscape:pageopacity="0.0"
     inkscape:pageshadow="2"
     inkscape:zoom="1.4"
     inkscape:cx="404.13947"
     inkscape:cy="875.7845"
     inkscape:current-layer="layer1"
     showgrid="false"
     inkscape:window-width="1366"
     inkscape:window-height="706"
     inkscape:window-x="-8"
     inkscape:window-y="-8"
     inkscape:window-maximized="1" />
  <metadata
     id="metadata4">
    <rdf:RDF>
      <cc:Work
         rdf:about="">
        <dc:format>image/svg+xml</dc:format>
        <dc:type
           rdf:resource="http://purl.org/dc/dcmitype/StillImage" />
        <dc:title></dc:title>
      </cc:Work>
    </rdf:RDF>
  </metadata>
  <g
     inkscape:label="Layer 1"
     inkscape:groupmode="layer"
     id="layer1">
    <path
       style="fill:#000000"
       d="M 90.891938,137.69547 C 73.479137,134.95621 59.53295,124.84167 51.929201,109.43755 40.061073,85.394403 49.534976,55.681914 73.192304,42.751228 c 7.947479,-4.343954 14.764439,-6.03665 24.336997,-6.043036 14.482839,-0.0097 26.654599,5.126747 36.572149,15.433214 13.83377,14.376281 17.85361,34.476378 10.76253,53.815144 -2.55056,6.95591 -8.96301,15.64135 -15.2406,20.64285 -7.1255,5.67707 -14.62059,9.11976 -23.24426,10.6767 -3.85047,0.69518 -12.282541,0.92351 -15.487182,0.41937 z m 15.782342,-5.46092 c 9.05847,-1.87107 16.1513,-5.70543 22.98136,-12.42365 5.67453,-5.58161 9.14821,-11.17478 11.67952,-18.80586 1.62302,-4.892883 1.74533,-5.806632 1.77694,-13.274721 0.0366,-8.652625 -0.58975,-12.047936 -3.41837,-18.529303 C 133.95152,56.043522 122.49036,46.320847 108.31501,42.581983 102.14069,40.953451 91.531067,41.21754 85.084245,43.16023 72.206441,47.040838 62.397239,55.256383 56.633677,66.988561 c -3.814322,7.764349 -4.717773,11.694591 -4.704369,20.465201 0.0088,5.742303 0.258455,8.059202 1.239715,11.503882 5.823938,20.444756 23.201224,33.915406 43.968761,34.084016 2.978896,0.0242 7.270316,-0.33902 9.536496,-0.80711 z m -20.331484,-23.34764 -0.152323,-8.71154 -8.573261,-0.276553 -8.57326,-0.276557 -0.157556,-9.679487 c -0.08666,-5.323718 -0.01969,-10.239514 0.148816,-10.923992 l 0.306373,-1.244506 28.087631,0 c 21.108454,0 28.252554,0.164925 28.751364,0.663737 0.70038,0.70038 0.98975,18.86142 0.328,20.585895 -0.28301,0.737539 -1.49883,0.87491 -7.74358,0.87491 l -7.40786,0 0,-3.595238 0,-3.595238 -12.168499,0 c -10.4477,0 -12.168498,0.117326 -12.168498,0.82967 0,0.709119 1.567155,0.829671 10.785714,0.829671 l 10.785713,0 0,11.615388 0,11.61538 -11.048224,0 -11.048226,0 -0.152324,-8.71154 z m 20.312874,5.66942 c 0,-0.33789 -3.28219,-0.61253 -8.434977,-0.7058 -7.700082,-0.13938 -9.158464,0.0745 -8.052063,1.1809 0.612531,0.61253 16.48704,0.15508 16.48704,-0.4751 z m 0.13828,-4.28663 c -0.17056,-0.51168 -2.36302,-0.6914 -8.434979,-0.6914 -6.071958,0 -8.264421,0.17972 -8.434982,0.6914 -0.177833,0.5335 1.748453,0.69139 8.434982,0.69139 6.686529,0 8.612809,-0.15789 8.434979,-0.69139 z m -0.13828,-4.01008 c 0,-0.58647 -8.754313,-1.09079 -10.083141,-0.58087 -0.424976,0.16307 -0.612162,0.55623 -0.415968,0.87368 0.462794,0.74882 10.499109,0.46891 10.499109,-0.29281 z m 0.13828,-4.28663 c -0.17056,-0.51168 -2.36302,-0.69139 -8.434979,-0.69139 -6.071958,0 -8.264421,0.17971 -8.434982,0.69139 -0.177833,0.5335 1.748453,0.69139 8.434982,0.69139 6.686529,0 8.612809,-0.15789 8.434979,-0.69139 z m -0.13828,-3.733514 c 0.21879,-0.354009 -1.56141,-0.553113 -4.94537,-0.553113 -3.156077,0 -5.287227,0.222949 -5.287227,0.553113 0,0.327499 2.017202,0.553114 4.945377,0.553114 2.71996,0 5.09921,-0.248901 5.28722,-0.553114 z m 17.33922,-15.976762 c 1.00419,-0.636377 0.58456,-2.494225 -0.61556,-2.725347 -1.07504,-0.207035 -1.80142,1.112508 -1.31301,2.38526 0.36011,0.938436 0.8485,1.02456 1.92857,0.340087 z m -37.527861,-14.167926 0,-8.020146 11.062272,0 11.062269,0 0,8.020146 0,8.020147 -11.062269,0 -11.062272,0 0,-8.020147 z M 581.89873,135.50878 c -0.21728,-0.21729 -0.39506,-12.79864 -0.39506,-27.95856 l 0,-27.56349 26.48191,0 c 27.98213,0 28.92662,0.07834 31.1247,2.581627 2.31306,2.634255 2.68276,4.333548 2.68276,12.330999 0,8.990394 -0.76268,11.477684 -4.24675,13.849274 l -2.03142,1.38279 -24.50625,0.15997 -24.50627,0.15998 -0.14861,12.56164 -0.14861,12.56163 -1.95566,0.1646 c -1.07562,0.0905 -2.13345,-0.0132 -2.35074,-0.23046 z m 53.08405,-31.0665 c 1.31962,-0.83907 1.83224,-3.65078 1.83224,-10.049332 0,-5.614152 -0.14962,-6.724945 -1.05694,-7.845858 l -1.05695,-1.305782 -22.86521,-0.159865 c -12.57588,-0.08792 -23.42525,-0.02096 -24.10973,0.148817 -1.22901,0.304839 -1.2445,0.424432 -1.2445,9.60889 0,5.115111 0.16593,9.46614 0.36874,9.66894 0.51283,0.51283 47.32298,0.44883 48.13235,-0.0658 z m -474.39853,14.2624 0,-1.65934 207.41758,0 207.41759,0 0,1.65934 0,1.65934 -207.41759,0 -207.41758,0 0,-1.65934 z m 429.76923,-0.55312 0,-1.65934 22.4011,0 22.4011,0 0,1.65934 0,1.65934 -22.4011,0 -22.4011,0 0,-1.65934 z m -428.29426,-8.11233 c -0.20281,-0.2028 -0.36875,-12.77231 -0.36875,-27.932232 l 0,-27.563491 22.26282,0.006 c 23.99298,0.0065 25.07218,0.115241 30.04327,3.028495 3.04415,1.783988 6.47594,5.717858 8.39231,9.620122 1.37274,2.795275 1.52688,3.695407 1.52688,8.916827 0,5.095198 -0.16964,6.14396 -1.38278,8.548682 -1.98192,3.928604 -7.0177,8.87445 -10.87502,10.680791 l -3.22938,1.512284 -20.74176,0.276557 -20.74176,0.276557 -0.15818,6.063914 c -0.10429,3.99754 -0.38701,6.20931 -0.82967,6.49061 -0.82849,0.52647 -3.39705,0.57583 -3.89798,0.0749 z m 46.25421,-18.994655 c 3.85483,-1.442279 6.93752,-4.125045 8.98257,-7.817263 1.46786,-2.650112 1.63908,-3.461947 1.61678,-7.665491 -0.0229,-4.319438 -0.17007,-4.932911 -1.8109,-7.549794 -1.9986,-3.187464 -4.38981,-5.213364 -8.26769,-7.004615 -2.53687,-1.171817 -3.22711,-1.209327 -22.25361,-1.209327 l -19.63553,0 -0.14725,15.479714 c -0.081,8.513842 -0.0266,15.794199 0.12091,16.178571 0.2089,0.544378 4.48553,0.698857 19.34721,0.698857 17.75007,0 19.2858,-0.07736 22.04751,-1.110652 z m 21.46826,18.603915 c -0.44461,-0.53573 -0.58679,-4.97649 -0.48256,-15.072346 l 0.14775,-14.312858 26.6857,-0.143589 c 30.09224,-0.161919 29.36365,-0.252411 32.32956,4.015384 2.06929,2.977593 1.86065,4.375568 -0.68499,4.589716 -1.59196,0.133921 -2.23575,-0.145676 -3.43527,-1.49193 -0.83349,-0.935458 -2.26821,-1.798873 -3.29547,-1.983216 -1.00061,-0.179564 -11.77535,-0.254899 -23.94385,-0.167411 l -22.12454,0.159068 -0.14956,11.848854 c -0.096,7.602588 -0.368,12.112078 -0.75911,12.583328 -0.79646,0.95968 -3.48346,0.944 -4.28766,-0.025 z m 64.47167,0.39074 c -0.20281,-0.2028 -0.36875,-7.0619 -0.36875,-15.242421 l 0,-14.873685 2.35074,0.170081 2.35073,0.170081 0.14766,14.619068 c 0.1144,11.326856 -0.0102,14.719246 -0.55311,15.063876 -0.8525,0.5411 -3.41841,0.60187 -3.92727,0.093 z m 10.72797,-0.41943 c -0.47634,-0.57396 -0.6075,-4.67032 -0.48256,-15.07234 l 0.17156,-14.284174 26.82601,-0.132121 26.826,-0.132121 2.21246,1.240625 c 1.45577,0.81632 2.63808,2.083903 3.45696,3.70628 1.16857,2.315205 1.2445,3.149736 1.2445,13.676746 l 0,11.211095 -1.33903,0.33607 c -3.36644,0.84492 -3.33286,0.94368 -3.68276,-10.830661 -0.17618,-5.928564 -0.51597,-11.337833 -0.75508,-12.020596 -0.77786,-2.221037 -3.09742,-2.414586 -26.85683,-2.240978 l -22.4011,0.163683 -0.14937,12.142717 c -0.10909,8.867325 -0.33289,12.259285 -0.82968,12.574855 -1.10784,0.70375 -3.53678,0.50956 -4.24108,-0.33908 z m 68.83947,-0.47373 c -1.23154,-0.69917 -2.75036,-2.21929 -3.44786,-3.45083 -1.24114,-2.1914 -1.24672,-2.30997 -1.25578,-26.676459 l -0.009,-24.475274 2.48901,0 2.48901,0 0,12.721611 c 0,9.801079 0.15873,12.724826 0.69139,12.735615 0.38027,0.0077 6.66502,0.06993 13.96612,0.138278 l 13.27473,0.124275 0,2.212454 0,2.212455 -12.44506,0.288013 c -6.84478,0.158407 -12.84692,0.483226 -13.33808,0.72182 -1.64186,0.797561 -2.1491,3.093464 -2.1491,9.727312 0,5.7678 0.13436,6.70756 1.14217,7.98878 l 1.14217,1.45204 26.37523,0.14361 26.37523,0.14363 0,2.48901 0,2.48901 -26.54945,0.13215 -26.54945,0.13215 -2.20118,-1.24965 z m 60.80815,0.57051 c -0.14569,-0.38026 -0.2001,-12.887543 -0.12092,-27.793953 l 0.14399,-27.102563 2.15615,-0.176555 c 1.34337,-0.110001 2.33967,0.0985 2.64299,0.553114 0.26776,0.401317 0.43484,8.818953 0.3713,18.705858 l -0.11554,17.97619 26.23445,0 26.23446,0 0.14563,-18.667582 0.14564,-18.667582 2.48677,0 2.48677,0 -0.1434,27.786454 c -0.13633,26.418469 -0.1932,27.796039 -1.15509,27.981219 -0.55643,0.10712 -1.61426,0.0435 -2.35073,-0.14132 -1.30802,-0.32829 -1.33904,-0.46781 -1.33904,-6.02261 0,-3.68537 -0.23357,-5.920103 -0.66373,-6.350265 -0.91354,-0.913538 -51.07974,-0.961311 -51.64347,-0.04917 -0.2089,0.338007 -0.41027,3.013696 -0.44748,5.945966 -0.0372,2.93229 -0.26903,5.64255 -0.51514,6.02281 -0.24612,0.38027 -1.31176,0.6914 -2.36809,0.6914 -1.05634,0 -2.03982,-0.31113 -2.18552,-0.6914 z m 74.51898,0.14786 c -2.34436,-0.55965 -4.39987,-2.45996 -5.6941,-5.26416 -0.88476,-1.91703 -1.02273,-3.70803 -1.03326,-13.413001 l -0.0121,-11.200549 26.88898,0 c 26.72283,0 26.90242,0.0076 29.06578,1.223437 2.57371,1.4465 4.16395,3.802597 4.60467,6.82225 0.41933,2.87312 -1.42376,6.133494 -4.42968,7.835956 -2.18329,1.236546 -2.38407,1.246751 -24.70455,1.255778 -12.37686,0.005 -23.10296,0.237058 -23.83578,0.515678 -2.85703,1.086238 -3.11941,5.227951 -0.42263,6.671221 0.67698,0.36231 10.28038,0.56579 26.70271,0.56579 19.20903,0 25.8121,0.16658 26.30925,0.66374 0.9525,0.95249 0.8381,4.12902 -0.16253,4.513 -1.26658,0.48603 -51.1909,0.3088 -53.27672,-0.18914 z M 555.2676,91.896597 c 1.50328,-0.34803 2.68159,-2.62384 2.24962,-4.344949 -0.22212,-0.884997 -0.96182,-1.585543 -2.0891,-1.978513 -2.56683,-0.894803 -46.47908,-0.8435 -47.37793,0.05535 -0.60847,0.608463 -0.96681,6.038661 -0.43376,6.57283 0.3169,0.317559 46.23153,0.02395 47.65117,-0.304721 z m 17.26668,17.098583 c -0.82629,-0.44846 -2.13302,-1.89154 -2.90385,-3.20685 l -1.40149,-2.39147 0,-24.458477 0,-24.458482 2.35073,0.170081 2.35074,0.170082 0.27655,23.983263 0.27656,23.983263 1.79762,1.50024 c 1.43018,1.19359 1.79762,1.91597 1.79762,3.53414 0,1.85542 -0.13347,2.03195 -1.52106,2.01174 -0.83659,-0.0122 -2.19713,-0.38907 -3.02342,-0.83753 z m -278.64967,-51.962662 0,-2.552617 2.35074,0.170081 c 2.34543,0.169698 2.35073,0.17507 2.35073,2.382536 0,2.207465 -0.006,2.212837 -2.35073,2.382535 l -2.35074,0.170081 0,-2.552616 z"
       id="path3897"
       inkscape:connector-curvature="0" />
  </g>
</svg>
